<svg xmlns="http://www.w3.org/2000/svg" width="33.243" height="28.26" viewBox="0 0 33.243 28.26"><g transform="translate(-2590.396 -879.61)"><path d="M-911.4,906.632v-3.98l26.594-5.91v15.8l-26.594-5.91Zm9.3,9.42-4.318-1.08v-3.829l6.859,1.529-2.541,3.38Zm17.289-24.71v1.99l-26.594,5.91v-1.25h-3.324v13.3h3.324v-1.26l1.663.37v5.871a1.679,1.679,0,0,0,1.258,1.62l6.649,1.659a1.853,1.853,0,0,0,.4.05,1.649,1.649,0,0,0,1.329-.67l4.106-5.47,11.186,2.48v1.99h3.325v-26.59Z" transform="translate(3505.121 -11.732)" fill="#7e8798"/></g></svg>