<svg xmlns="http://www.w3.org/2000/svg" width="32.654" height="31.171" viewBox="0 0 32.654 31.171"><g transform="translate(-2591.882 -59.162)"><path d="M-883.554,73.863h-4.452V70.894h-2.97V79.8h2.97V76.831h4.452V99.1h-26.718V76.831h2.969V73.863h-2.969a2.967,2.967,0,0,0-2.967,2.968V99.1a2.968,2.968,0,0,0,2.967,2.969h26.718a2.97,2.97,0,0,0,2.969-2.969V76.831a2.969,2.969,0,0,0-2.969-2.968Z" transform="translate(3505.121 -11.732)" fill="#7e8798"/><path d="M-902.85,76.831h10.39V73.863h-10.39V70.894h-2.969V79.8h2.969V76.831Z" transform="translate(3505.121 -11.732)" fill="#7e8798"/><path d="M-901.366,82.769H-907.3v5.937h5.937V82.769Z" transform="translate(3505.121 -11.732)" fill="#a5a9ab"/><path d="M-893.944,82.769h-5.937v5.937h5.937V82.769Z" transform="translate(3505.121 -11.732)" fill="#7e8798"/><path d="M-892.46,88.706h5.937V82.769h-5.937v5.937Z" transform="translate(3505.121 -11.732)" fill="#a5a9ab"/><path d="M-907.3,96.127h5.937V90.19H-907.3v5.937Z" transform="translate(3505.121 -11.732)" fill="#7e8798"/><path d="M-899.881,96.127h5.937V90.19h-5.937v5.937Z" transform="translate(3505.121 -11.732)" fill="#a5a9ab"/></g></svg>