<svg xmlns="http://www.w3.org/2000/svg" width="37.431" height="31.188" viewBox="0 0 37.431 31.188"><g transform="translate(-2586.437 -661.651)"><path d="M-893.73,693.662a3.121,3.121,0,0,0,3.119-3.12,3.115,3.115,0,0,0-3.119-3.12,3.114,3.114,0,0,0-3.118,3.12,3.12,3.12,0,0,0,3.118,3.12Z" transform="translate(3505.121 -11.732)" fill="#7e8798"/><path d="M-912.446,698.342h-3.119v-9.36h3.119v9.36Zm29.634-17.16h-2.235l-4.226-7.039a1.579,1.579,0,0,0-1.02-.731,1.612,1.612,0,0,0-1.224.26l-10.51,7.51h5.367l5.583-3.99,2.391,3.99h-6.6v3.12h10.917v12.48h-18.716v-3.12h-3.118v4.68a1.56,1.56,0,0,0,1.559,1.56h10.733l-.349.69a1.531,1.531,0,0,1-1.393.86h-9.9l-3.765-3.76v-8.07l3.765-3.76h5.593v1.56a1.562,1.562,0,0,1-1.56,1.56h-3.119v3.12h3.119a4.686,4.686,0,0,0,4.68-4.68V684.3a1.562,1.562,0,0,0-1.561-1.56h-7.8a1.534,1.534,0,0,0-1.1.46l-2.858,2.86a1.471,1.471,0,0,0-.718-.2h-6.238a1.561,1.561,0,0,0-1.56,1.56V699.9a1.553,1.553,0,0,0,1.56,1.55h6.238a1.579,1.579,0,0,0,.718-.19l2.858,2.86a1.567,1.567,0,0,0,1.1.45h10.55a4.656,4.656,0,0,0,4.184-2.58l1.046-2.09h7.614a1.56,1.56,0,0,0,1.559-1.56v-15.6a1.56,1.56,0,0,0-1.559-1.56Z" transform="translate(3505.121 -11.732)" fill="#7e8798"/></g></svg>