<svg xmlns="http://www.w3.org/2000/svg" width="45.483" height="37.903" viewBox="0 0 45.483 37.903"><g transform="translate(-2506.033 -172.711)"><path d="M-957.4,193.919h-3.791v-3.79a1.9,1.9,0,0,1,1.9-1.9,1.9,1.9,0,0,1,1.894,1.9v3.79Zm-7.581,20.846a1.9,1.9,0,0,1-1.895,1.9,2.026,2.026,0,0,1-1.9-1.9,5.989,5.989,0,0,0-5.685-5.685h-3.791V190.129a1.9,1.9,0,0,1,1.9-1.9h11.72a5.609,5.609,0,0,0-.35,1.9v24.636Zm-9.475-1.9a2.218,2.218,0,0,1,1.895,1.9,5.33,5.33,0,0,0,.374,1.9h-7.26c.705-1.9,2.122-3.79,4.991-3.79Zm-9.341,5.685h-10.889c.9-2.506,2.605-5.685,5.069-5.685h7.89a13.638,13.638,0,0,0-2.07,5.685Zm24.5-34.112h-17.057a5.691,5.691,0,0,0-5.685,5.686V209.08h-7.581c-7.157,0-9.349,10.55-9.438,11a1.889,1.889,0,0,0,.391,1.574,1.9,1.9,0,0,0,1.466.694h15.162a1.9,1.9,0,0,0,1.9-1.895h13.265a5.692,5.692,0,0,0,5.685-5.686V197.709h5.686a1.9,1.9,0,0,0,1.9-1.9v-5.685a5.69,5.69,0,0,0-5.684-5.686Z" transform="translate(3505.121 -11.732)" fill="#7e8798"/><path d="M-976.346,195.814h9.475v-3.79h-9.475v3.79Z" transform="translate(3505.121 -11.732)" fill="#7e8798"/><path d="M-976.346,201.5h9.475v-3.79h-9.475v3.79Z" transform="translate(3505.121 -11.732)" fill="#7e8798"/><path d="M-976.346,207.185h9.475v-3.791h-9.475v3.791Z" transform="translate(3505.121 -11.732)" fill="#7e8798"/></g></svg>