<svg xmlns="http://www.w3.org/2000/svg" width="30.107" height="36.128" viewBox="0 0 30.107 36.128"><g transform="translate(-2593.155 48.87)"><path d="M-884.868-13.052h-15.055V-34.127h9.031v6.021h6.022l0,15.054Zm-3.9-24.086h-11.16a3.015,3.015,0,0,0-3.011,3.011v21.075a3.014,3.014,0,0,0,3.011,3.01h15.053a3.015,3.015,0,0,0,3.011-3.01V-30.234l-6.9-6.9Z" transform="translate(3505.121 -11.732)" fill="#7e8798"/><path d="M-904.439-32.622h-3.011V-8.537a3.014,3.014,0,0,0,3.011,3.011h18.063V-8.537h-18.063V-32.622Z" transform="translate(3505.121 -11.732)" fill="#7e8798"/><path d="M-908.955-28.106h-3.011V-4.021a3.014,3.014,0,0,0,3.011,3.011h18.063V-4.021h-18.063V-28.106Z" transform="translate(3505.121 -11.732)" fill="#7e8798"/></g></svg>