<svg xmlns="http://www.w3.org/2000/svg" width="35.172" height="33.444" viewBox="0 0 35.172 33.444"><g transform="translate(-864.366 -61.597)"><path d="M1190.209-479.475l.59-1.759,25.6-.056.59,1.757-26.78.058Zm4.56-17.593,3.52-.009.02,12.309-3.51.008-.03-12.308Zm-3.53-4.048,12.3-4.644,12.321,4.59v.538l-24.621.054v-.538Zm14.081,4.024.03,12.309-3.52.009-.031-12.31,3.521-.008Zm7.06,12.294-3.52.007-.02-12.309,3.51-.007.03,12.309Zm8.72,6.459-1.77-5.272a1.774,1.774,0,0,0-1.671-1.2l-1.76,0-.029-12.309,1.76,0a1.751,1.751,0,0,0,1.75-1.762V-502.4a1.774,1.774,0,0,0-1.151-1.644l-14.08-5.245a1.748,1.748,0,0,0-1.23,0l-14.059,5.306a1.772,1.772,0,0,0-1.141,1.649l.01,3.517a1.756,1.756,0,0,0,1.76,1.754l1.761,0,.029,12.309-1.76,0a1.763,1.763,0,0,0-1.669,1.206l-1.74,5.279a1.751,1.751,0,0,0,.24,1.585,1.763,1.763,0,0,0,1.429.726l31.65-.069a1.766,1.766,0,0,0,1.431-.731,1.766,1.766,0,0,0,.24-1.586Z" transform="translate(-321.652 570.994)" fill="#7e8798"/><path d="M1201.309-484.716l-3.52.008-.01-6.213,3.51-.008.02,6.213Z" transform="translate(-321.652 570.994)" fill="#7e8798"/><path d="M1210.2-484.734l-3.52.007-.01-6.212,3.52-.008.01,6.213Z" transform="translate(-321.652 570.994)" fill="#7e8798"/><path d="M1197.779-489.8l-.01-3.517,12.41-.027.01,3.517-12.41.027Z" transform="translate(-321.652 570.994)" fill="#7e8798"/><path d="M1195.249-497.092l16.628-.011.033,4.1-15.251.01-1.409-4.1Z" transform="translate(-321.088 570.994)" fill="#fff"/></g></svg>