<svg xmlns="http://www.w3.org/2000/svg" width="35.168" height="33.409" viewBox="0 0 35.168 33.409"><g transform="translate(-2590.624 154.306)"><path d="M-910.3-112.681l.587-1.758h25.6l.586,1.758Zm4.594-17.584h3.517v12.309h-3.517v-12.309Zm-3.517-4.055,12.31-4.617,12.308,4.617v.538h-24.618v-.538Zm14.068,4.055v12.309h-3.516v-12.309Zm7.033,12.309h-3.516v-12.309h3.516v12.309Zm8.7,6.478-1.758-5.276a1.76,1.76,0,0,0-1.668-1.2H-884.6v-12.309h1.759a1.759,1.759,0,0,0,1.759-1.758v-3.517a1.763,1.763,0,0,0-1.141-1.647l-14.068-5.274a1.751,1.751,0,0,0-1.235,0l-14.067,5.274a1.76,1.76,0,0,0-1.141,1.647v3.517a1.758,1.758,0,0,0,1.758,1.758h1.758v12.309h-1.758a1.759,1.759,0,0,0-1.668,1.2l-1.758,5.276a1.76,1.76,0,0,0,.241,1.585,1.758,1.758,0,0,0,1.427.729h31.652a1.754,1.754,0,0,0,1.425-.729,1.758,1.758,0,0,0,.242-1.585Z" transform="translate(3505.121 -11.732)" fill="#7e8798"/><path d="M-889.878-130.265v3.763h-14.068l-1.275-3.763Z" transform="translate(3505.758 -11.732)" fill="#fff"/><path d="M-899.194-117.9h-3.517v-6.212h3.517v6.212Z" transform="translate(3505.121 -11.732)" fill="#7e8798"/><path d="M-890.3-117.9h-3.516v-6.212h3.516v6.212Z" transform="translate(3505.121 -11.732)" fill="#7e8798"/><path d="M-902.711-122.985V-126.5h12.41v3.517Z" transform="translate(3505.121 -11.732)" fill="#7e8798"/></g></svg>