<svg xmlns="http://www.w3.org/2000/svg" width="37.837" height="37.84" viewBox="0 0 37.837 37.84"><g transform="translate(-2592.128 -300.73)"><path d="M-909.047,318.132c.9-.76,4.028-1.89,7.4-1.89s6.506,1.13,7.406,1.89h3.946c0-4.24-7.8-5.67-11.352-5.67s-11.35,1.43-11.35,5.67v22.71c0,4.24,7.8,5.67,11.35,5.67.544,0,1.2-.04,1.892-.11v-3.8a14.619,14.619,0,0,1-1.892.13c-3.624,0-6.964-1.3-7.567-2.06v-1.31a21.609,21.609,0,0,0,7.567,1.48c.546,0,1.2-.04,1.892-.11v-3.8a16.647,16.647,0,0,1-1.892.12c-3.663,0-7.017-1.32-7.567-2.07v-1.29a21.576,21.576,0,0,0,7.567,1.47c.546,0,1.2-.04,1.892-.11v-3.8a14.611,14.611,0,0,1-1.892.13c-3.663,0-7.017-1.32-7.567-2.08v-1.29a21.609,21.609,0,0,0,7.567,1.48c.546,0,1.2-.04,1.892-.11v-3.8a16.647,16.647,0,0,1-1.892.12c-3.663,0-7.017-1.32-7.567-2.07v-1.29a21.554,21.554,0,0,0,7.567,1.47c.546,0,1.2-.04,1.892-.11v-3.8a14.623,14.623,0,0,1-1.892.13c-3.375,0-6.505-1.13-7.4-1.9Z" transform="translate(3505.121 -11.732)" fill="#7e8798"/><path d="M-886.508,346.512c-3.625,0-6.965-1.29-7.567-2.05v-1.31a21.572,21.572,0,0,0,7.567,1.47,21.576,21.576,0,0,0,7.567-1.47v1.31c-.6.76-3.942,2.05-7.567,2.05Zm0-20.81c3.377,0,6.505,1.13,7.4,1.89-.9.77-4.03,1.9-7.4,1.9s-6.505-1.13-7.4-1.9c.9-.76,4.028-1.89,7.4-1.89Zm7.567,13.06c-.548.761-3.9,2.08-7.567,2.08s-7.017-1.319-7.567-2.08v-1.29a21.571,21.571,0,0,0,7.567,1.47,21.576,21.576,0,0,0,7.567-1.47v1.29Zm0-5.68c-.548.76-3.9,2.08-7.567,2.08s-7.017-1.32-7.567-2.08V331.8a21.572,21.572,0,0,0,7.567,1.47,21.576,21.576,0,0,0,7.567-1.47v1.28Zm-7.567-11.16c-3.556,0-11.35,1.43-11.35,5.67v17.03c0,4.25,7.794,5.68,11.35,5.68s11.352-1.43,11.352-5.68v-17.03c0-4.24-7.8-5.67-11.352-5.67Z" transform="translate(3505.121 -11.732)" fill="#a5a9ab"/></g></svg>