<svg xmlns="http://www.w3.org/2000/svg" width="26.659" height="38.091" viewBox="0 0 26.659 38.091"><g transform="translate(-2593.942 -556.2)"><path d="M-884.938,568.652a1.915,1.915,0,0,0-1.486-.72h-22.851a1.916,1.916,0,0,0-1.486.72,1.9,1.9,0,0,0-.372,1.6l3.808,17.141,3.718-.831-3.294-14.82h5.625l1.523,7.62h3.808l1.523-7.62h5.625l-3.294,14.82,3.718.831,3.808-17.141a1.893,1.893,0,0,0-.373-1.6Z" transform="translate(3505.121 -11.732)" fill="#7e8798"/><path d="M-897.849,598.4a1.955,1.955,0,0,1,.852.2l3.914,1.96-.9-3.6a1.91,1.91,0,0,1,.262-1.52l1.834-2.75h-2.154a1.91,1.91,0,0,1-1.7-1.049l-2.106-4.211-2.1,4.211a1.914,1.914,0,0,1-1.705,1.049h-2.154l1.834,2.75a1.911,1.911,0,0,1,.264,1.52l-.9,3.6,3.914-1.96a1.958,1.958,0,0,1,.852-.2Zm7.617,7.62a1.971,1.971,0,0,1-.852-.2l-6.765-3.38-6.765,3.38a1.9,1.9,0,0,1-2.042-.22,1.906,1.906,0,0,1-.658-1.95l1.7-6.8-3.342-5.01a1.9,1.9,0,0,1-.095-1.95,1.912,1.912,0,0,1,1.68-1.01h4.535l3.282-6.56a1.983,1.983,0,0,1,3.407,0l3.283,6.56h4.535a1.91,1.91,0,0,1,1.679,1.01,1.9,1.9,0,0,1-.094,1.95l-3.342,5.01,1.7,6.8a1.908,1.908,0,0,1-.656,1.95,1.886,1.886,0,0,1-1.192.42Z" transform="translate(3505.121 -11.732)" fill="#7e8798"/></g></svg>