<svg xmlns="http://www.w3.org/2000/svg" width="29.136" height="26.22" viewBox="0 0 29.136 26.22"><g transform="translate(-2592.819 -773.71)"><path d="M-887.536,788.352a1.464,1.464,0,0,1,1.458,1.46,1.457,1.457,0,0,1-1.458,1.46,1.457,1.457,0,0,1-1.457-1.46,1.464,1.464,0,0,1,1.457-1.46Zm0,5.83a4.374,4.374,0,0,0,4.37-4.37,4.374,4.374,0,0,0-4.37-4.37,4.363,4.363,0,0,0-4.1,2.91H-912.3v2.92h20.664a4.363,4.363,0,0,0,4.1,2.91Z" transform="translate(3505.121 -11.732)" fill="#7e8798"/><path d="M-902.1,800.012a1.457,1.457,0,0,1-1.456-1.46,1.455,1.455,0,0,1,1.456-1.45,1.455,1.455,0,0,1,1.457,1.45,1.457,1.457,0,0,1-1.457,1.46Zm0-5.83a4.359,4.359,0,0,0-4.1,2.92h-6.1v2.91h6.1a4.363,4.363,0,0,0,4.1,2.91,4.362,4.362,0,0,0,4.1-2.91h14.837V797.1H-898a4.357,4.357,0,0,0-4.1-2.92Z" transform="translate(3505.121 -11.732)" fill="#7e8798"/><path d="M-887.536,808.752a1.457,1.457,0,0,1-1.457-1.46,1.455,1.455,0,0,1,1.457-1.45,1.455,1.455,0,0,1,1.458,1.45,1.457,1.457,0,0,1-1.458,1.46Zm0-5.83a4.359,4.359,0,0,0-4.1,2.92H-912.3v2.91h20.664a4.363,4.363,0,0,0,4.1,2.91,4.374,4.374,0,0,0,4.37-4.37,4.374,4.374,0,0,0-4.37-4.37Z" transform="translate(3505.121 -11.732)" fill="#7e8798"/></g></svg>