<svg xmlns="http://www.w3.org/2000/svg" width="22.29" height="18.575" viewBox="0 0 22.29 18.575"><path d="M-978.655,189.087h-1.858V187.23a.93.93,0,0,1,.93-.929.93.93,0,0,1,.928.929v1.857Zm-3.715,10.216a.929.929,0,0,1-.929.929.993.993,0,0,1-.929-.929,2.935,2.935,0,0,0-2.786-2.786h-1.858V187.23a.93.93,0,0,1,.929-.929h5.744a2.748,2.748,0,0,0-.172.929V199.3Zm-4.643-.929a1.087,1.087,0,0,1,.929.929,2.613,2.613,0,0,0,.183.929h-3.558a2.527,2.527,0,0,1,2.446-1.857Zm-4.578,2.786h-5.336c.441-1.228,1.277-2.786,2.484-2.786h3.867a6.683,6.683,0,0,0-1.014,2.786Zm12.008-16.717h-8.359a2.789,2.789,0,0,0-2.786,2.787v9.287h-3.715c-3.507,0-4.582,5.17-4.625,5.39a.926.926,0,0,0,.192.771.929.929,0,0,0,.718.34h7.43a.929.929,0,0,0,.929-.929h6.5a2.789,2.789,0,0,0,2.786-2.787v-8.359h2.787a.929.929,0,0,0,.929-.929V187.23a2.789,2.789,0,0,0-2.786-2.787Z" transform="translate(999.088 -184.443)" fill="#fff"/></svg>