<svg xmlns="http://www.w3.org/2000/svg" width="35.612" height="32.37" viewBox="0 0 35.612 32.37"><g transform="translate(-2591.82 -992.2)"><path d="M-898.732,1024.972l9.712-4.86-9.712-4.85v9.71Z" transform="translate(3505.121 -11.732)" fill="#7e8798"/><path d="M-910.064,1033.062v-25.9h29.137l0,25.9Zm29.137-29.13h-29.137a3.237,3.237,0,0,0-3.237,3.23v25.9a3.239,3.239,0,0,0,3.237,3.24h29.137a3.24,3.24,0,0,0,3.238-3.24v-25.9a3.238,3.238,0,0,0-3.238-3.23Z" transform="translate(3505.121 -11.732)" fill="#7e8798"/><path d="M-906.826,1012.022h3.238v-3.24h-3.238v3.24Z" transform="translate(3505.121 -11.732)" fill="#7e8798"/><path d="M-897.114,1008.782h-3.238v3.24h3.238v-3.24Z" transform="translate(3505.121 -11.732)" fill="#7e8798"/><path d="M-890.638,1008.782h-3.238v3.24h3.238v-3.24Z" transform="translate(3505.121 -11.732)" fill="#7e8798"/><path d="M-887.4,1012.022h3.238v-3.24H-887.4v3.24Z" transform="translate(3505.121 -11.732)" fill="#7e8798"/><path d="M-906.826,1031.452h3.238v-3.24h-3.238v3.24Z" transform="translate(3505.121 -11.732)" fill="#7e8798"/><path d="M-900.352,1031.452h3.238v-3.24h-3.238v3.24Z" transform="translate(3505.121 -11.732)" fill="#7e8798"/><path d="M-893.877,1031.452h3.238v-3.24h-3.238v3.24Z" transform="translate(3505.121 -11.732)" fill="#7e8798"/><path d="M-887.4,1031.452h3.238v-3.24H-887.4v3.24Z" transform="translate(3505.121 -11.732)" fill="#7e8798"/></g></svg>